<svg xmlns="http://www.w3.org/2000/svg" viewBox="0 0 32 32">
  <rect width="32" height="32" rx="8" fill="#1a1a1a"/>
  <path d="M16 7c-2.8 0-5 2.2-5 5 0 .8.2 1.5.5 2.2-.3.5-.5 1.1-.5 1.8 0 1.5.8 2.8 2 3.5V21c0 .6.4 1 1 1h4c.6 0 1-.4 1-1v-1.5c1.2-.7 2-2 2-3.5 0-.7-.2-1.3-.5-1.8.3-.7.5-1.4.5-2.2 0-2.8-2.2-5-5-5zm-1 11.5V17h2v1.5c-.3.1-.7.1-1 .1s-.7 0-1-.1zm3.5-3.5c-.2.1-.3.3-.3.5v.5h-2V15c0-.2-.1-.4-.3-.5C15 14 14 13.1 14 12c0-1.7 1.3-3 3-3s3 1.3 3 3c0 1.1-1 2-1.5 2.5z" fill="white" opacity="0.9"/>
  <circle cx="14" cy="12" r="1" fill="white" opacity="0.6"/>
  <circle cx="18" cy="12" r="1" fill="white" opacity="0.6"/>
</svg>
