<svg xmlns="http://www.w3.org/2000/svg" viewBox="0 0 32 32">
  <rect width="32" height="32" rx="8" fill="#1a1a1a"/>
  <path d="M16 5c-1.8 0-3.3.9-4.2 2.2C11.2 7.1 10.6 7 10 7c-2.2 0-4 1.8-4 4 0 .8.2 1.5.6 2.1C6.2 13.6 6 14.3 6 15c0 1.6.9 3 2.3 3.7.4 1.9 2.1 3.3 4.2 3.3.3 0 .5 0 .8-.1L14 23.5c.1.3.4.5.7.5h2.6c.3 0 .6-.2.7-.5l.7-1.6c.3.1.5.1.8.1 2.1 0 3.8-1.4 4.2-3.3C25.1 18 26 16.6 26 15c0-.7-.2-1.4-.6-2 .4-.6.6-1.3.6-2.1 0-2.1-1.6-3.8-3.6-4C21.5 5.8 20 5 18.3 5c-.5 0-1 .1-1.5.3C16.6 5.1 16.3 5 16 5z" fill="white"/>
</svg>
